<?xml version="1.0" encoding="UTF-8" standalone="no"?>
<!-- Generator: Adobe Illustrator 14.0.0, SVG Export Plug-In . SVG Version: 6.00 Build 43363)  -->

<svg
   version="1.1"
   id="svg1901"
   inkscape:version="1.3.2 (091e20ef0f, 2023-11-25)"
   sodipodi:docname="favicon.svg"
   x="0px"
   y="0px"
   width="53.417px"
   height="53.99px"
   viewBox="346.5 473.844 53.417 53.99"
   enable-background="new 346.5 473.844 53.417 53.99"
   xml:space="preserve"
   xmlns:inkscape="http://www.inkscape.org/namespaces/inkscape"
   xmlns:sodipodi="http://sodipodi.sourceforge.net/DTD/sodipodi-0.dtd"
   xmlns="http://www.w3.org/2000/svg"
   xmlns:svg="http://www.w3.org/2000/svg">
<sodipodi:namedview
   id="namedview1769"
   showgrid="false"
   pagecolor="#ffffff"
   bordercolor="#666666"
   inkscape:cy="12.78073"
   guidetolerance="10"
   inkscape:cx="24.437879"
   gridtolerance="10"
   inkscape:zoom="3.560047"
   objecttolerance="10"
   borderopacity="1"
   inkscape:current-layer="layer2"
   inkscape:window-y="0"
   inkscape:window-x="0"
   inkscape:snap-grids="true"
   inkscape:window-height="1023"
   inkscape:window-width="3840"
   inkscape:pageshadow="2"
   inkscape:pageopacity="0"
   inkscape:window-maximized="1"
   inkscape:showpageshadow="0"
   inkscape:pagecheckerboard="0"
   inkscape:deskcolor="#505050"
   showguides="true">
	<inkscape:grid
   type="xygrid"
   id="grid4583"
   originx="0"
   originy="0"
   spacingy="1"
   spacingx="1"
   units="px"
   visible="false" />
</sodipodi:namedview>
<defs
   id="defs1" />
<g
   id="layer2"
   transform="translate(115.62417,74.248815)">
	<path
   id="rect4895"
   fill="#656565"
   d="M236.654,400.587h41.954c2.634,0,4.771,1.797,4.771,4.012v44.021   c0,2.216-2.136,4.012-4.771,4.012h-41.954c-2.634,0-4.771-1.796-4.771-4.012v-44.021   C231.883,402.384,234.019,400.587,236.654,400.587z" />
	<rect
   id="rect4897"
   x="272.074"
   y="404.453"
   fill="#D6D6D6"
   width="11.279"
   height="34.563" />
	
		<linearGradient
   id="path4899_1_"
   gradientUnits="userSpaceOnUse"
   x1="-885.3761"
   y1="640.0551"
   x2="-888.4066"
   y2="652.6821"
   gradientTransform="matrix(0.2087 0 0 -0.208 461.3392 537.5479)">
		<stop
   offset="0"
   style="stop-color:#D6D6D6"
   id="stop1" />
		<stop
   offset="1"
   style="stop-color:#656565"
   id="stop2" />
	</linearGradient>
	<path
   id="path4899"
   fill="url(#path4899_1_)"
   d="M274.235,407.467l9.094-2.972c-0.361-2.856-2.329-3.846-5.069-3.937   c-3.646,0.105-7.203,0.26-9.094,1.337L274.235,407.467z" />
	<rect
   id="rect4901"
   x="240.976"
   y="439.646"
   fill="#929292"
   width="33.469"
   height="12.975" />
	
		<linearGradient
   id="path4903_1_"
   gradientUnits="userSpaceOnUse"
   x1="2230.7595"
   y1="454.8979"
   x2="2250.8057"
   y2="439.2401"
   gradientTransform="matrix(-0.2087 0 0 -0.208 744.2323 537.5479)">
		<stop
   offset="0"
   style="stop-color:#D6D6D6"
   id="stop3" />
		<stop
   offset="1"
   style="stop-color:#939393"
   id="stop4" />
	</linearGradient>
	<path
   id="path4903"
   fill="url(#path4903_1_)"
   d="M272.535,436.6l10.805,1.155l0.04,10.506c-0.005,2.709-2.167,4.266-4.401,4.359   l-4.81-0.052l-5.324-12.345L272.535,436.6z" />
	
		<linearGradient
   id="path4905_1_"
   gradientUnits="userSpaceOnUse"
   x1="-1084.8995"
   y1="454.4057"
   x2="-1061.9962"
   y2="438.7479"
   gradientTransform="matrix(0.2087 0 0 -0.208 461.3392 537.5479)">
		<stop
   offset="0"
   style="stop-color:#656565"
   id="stop5" />
		<stop
   offset="1"
   style="stop-color:#939393"
   id="stop6" />
	</linearGradient>
	<path
   id="path4905"
   fill="url(#path4905_1_)"
   d="M239.395,436.495l-7.484,1.261l-0.04,10.506c0.005,2.709,2.167,4.266,4.401,4.359   l4.81-0.052l1.687-12.292L239.395,436.495z" />
	<path
   id="rect4907"
   fill="#F1F1F1"
   d="M243.424,401.246h26.994c2.635,0,4.771,2.128,4.771,4.754v30.736   c0,2.626-2.136,4.755-4.771,4.755h-26.994c-2.635,0-4.771-2.129-4.771-4.755v-30.736   C238.654,403.373,240.789,401.246,243.424,401.246z" />
	
		<linearGradient
   id="rect4909_1_"
   gradientUnits="userSpaceOnUse"
   x1="-1143.3112"
   y1="401.0522"
   x2="-1066.7612"
   y2="401.0522"
   gradientTransform="matrix(0.2087 0 0 -0.208 488.0692 504.7872)">
		<stop
   offset="0"
   style="stop-color:#D8D8D8"
   id="stop7" />
		<stop
   offset="1"
   style="stop-color:#B1B1B1"
   id="stop8" />
	</linearGradient>
	<path
   id="rect4909"
   fill="url(#rect4909_1_)"
   d="m 243.424,401.246 h 25.94 c 2.635,0 4.771,2.128 4.771,4.754 v 30.736 c 0,2.626 -2.136,4.755 -4.771,4.755 h -25.94 c -2.635,0 -4.771,-2.129 -4.771,-4.755 V 406 c 0.001,-2.627 2.136,-4.754 4.771,-4.754 z"
   sodipodi:nodetypes="ssssssscs" />
	
	<path
   id="rect4915"
   fill="none"
   stroke="#000000"
   stroke-width="1.5"
   d="m 236.654,400.587 h 41.954 c 2.634,0 4.771,1.797 4.771,4.012 v 44.021 c 0,2.216 -2.136,4.012 -4.771,4.012 h -41.954 c -2.634,0 -4.771,-1.796 -4.771,-4.012 v -44.021 c 0,-2.215 2.136,-4.012 4.771,-4.012 z"
   style="display:inline" />
<text
   xml:space="preserve"
   style="font-size:15.0818px;fill:#aa0000;fill-opacity:1;stroke-width:1.25681;stroke:none"
   x="238.32909"
   y="439.80411"
   id="text9"
   transform="scale(1.0400916,0.96145377)"><tspan
     sodipodi:role="line"
     id="tspan9"
     x="238.32909"
     y="439.80411"
     style="font-style:normal;font-variant:normal;font-weight:normal;font-stretch:normal;font-size:15.0818px;font-family:Serif;-inkscape-font-specification:'Serif, Normal';font-variant-ligatures:normal;font-variant-caps:normal;font-variant-numeric:normal;font-variant-east-asian:normal;fill:#aa0000;stroke-width:1.25681;stroke:none">T</tspan></text><path
   style="display:inline;fill:none;fill-opacity:0;stroke-linejoin:round;stroke:#4d4d4d;stroke-width:2;stroke-dasharray:none"
   d="m 260.25136,424.5695 c 3.83869,-3.91092 3.79429,-10.1892 -0.097,-14.04364 -3.8911,-3.85424 -10.16374,-3.83357 -14.03782,0.0411 -3.87408,3.87468 -3.89378,10.14732 -0.0389,14.03783 3.85504,3.89071 10.13332,3.93414 14.04365,0.0948 l 9.73514,9.6025"
   id="path1" /><path
   style="display:inline;fill:#aa4400;fill-opacity:0;stroke:#aa4400;stroke-width:2.25;stroke-linecap:round;stroke-linejoin:round;stroke-dasharray:none;stroke-opacity:1"
   d="m 265.26143,428.14804 5.37453,5.37453 -1.55906,1.55905 -5.37453,-5.37453 z"
   id="path17"
   sodipodi:nodetypes="ccccc" /></g>
</svg>
